<?xml version="1.0" standalone="no"?>
<!DOCTYPE svg PUBLIC "-//W3C//DTD SVG 20010904//EN"
 "http://www.w3.org/TR/2001/REC-SVG-20010904/DTD/svg10.dtd">
<svg version="1.0" xmlns="http://www.w3.org/2000/svg"
 width="840.000000pt" height="930.000000pt" viewBox="0 0 840.000000 930.000000"
 preserveAspectRatio="xMidYMid meet">

<g transform="translate(0.000000,930.000000) scale(0.100000,-0.100000)"
fill="#000000" stroke="none">
<path d="M4030 8889 c-277 -32 -574 -146 -800 -306 -122 -87 -316 -281 -403
-403 -79 -111 -193 -337 -236 -465 -70 -210 -102 -473 -83 -680 24 -258 71
-426 182 -650 89 -178 171 -292 338 -468 234 -247 447 -557 595 -867 92 -192
161 -380 139 -380 -17 0 -244 149 -362 238 -63 48 -171 141 -240 207 -151 146
-200 186 -310 258 -515 333 -1160 364 -1710 81 -506 -260 -850 -760 -921
-1337 -15 -123 -7 -390 15 -512 106 -577 491 -1061 1026 -1288 223 -95 401
-130 655 -131 245 -1 415 30 629 115 237 94 404 208 646 444 63 61 147 137
187 168 119 94 408 287 430 287 3 0 3 -55 -1 -122 -44 -821 -349 -1570 -841
-2061 -99 -100 -244 -218 -316 -259 l-39 -22 0 -158 0 -158 1590 0 1590 0 0
158 c0 156 0 159 -23 169 -52 24 -236 172 -331 267 -494 494 -802 1248 -843
2064 -6 115 -5 125 11 119 29 -12 277 -177 376 -251 52 -39 156 -130 230 -202
250 -240 423 -358 662 -450 738 -285 1592 -9 2030 657 132 200 221 422 264
659 22 117 29 385 15 507 -71 576 -416 1078 -920 1337 -217 111 -408 165 -660
188 -297 26 -632 -43 -910 -187 -153 -80 -275 -171 -439 -328 -157 -150 -303
-264 -487 -382 -117 -75 -135 -83 -135 -65 0 25 85 242 138 353 167 349 355
623 616 896 66 70 151 170 189 222 80 111 194 337 236 466 212 647 32 1352
-462 1819 -352 332 -856 506 -1317 453z"/>
</g>
</svg>
