<?xml version="1.0" standalone="no"?>
<!DOCTYPE svg PUBLIC "-//W3C//DTD SVG 20010904//EN"
 "http://www.w3.org/TR/2001/REC-SVG-20010904/DTD/svg10.dtd">
<svg version="1.0" xmlns="http://www.w3.org/2000/svg"
 width="840.000000pt" height="880.000000pt" viewBox="0 0 840.000000 880.000000"
 preserveAspectRatio="xMidYMid meet">

<g transform="translate(0.000000,880.000000) scale(0.100000,-0.100000)"
fill="#f80303" stroke="none">
<path d="M4121 8188 c-208 -543 -460 -1060 -704 -1443 -411 -646 -916 -1151
-1562 -1562 -383 -244 -900 -496 -1443 -704 -105 -40 -192 -76 -192 -80 0 -3
35 -19 77 -34 43 -16 170 -65 283 -110 1720 -692 2635 -1557 3343 -3161 73
-164 200 -480 247 -611 13 -35 26 -63 29 -63 4 0 40 87 80 193 208 542 460
1059 704 1442 411 646 916 1151 1562 1562 383 244 900 496 1443 704 105 40
192 76 192 80 0 3 -35 19 -77 34 -43 16 -170 65 -283 110 -1720 692 -2635
1557 -3343 3161 -73 164 -200 480 -247 612 -13 34 -26 62 -29 62 -4 0 -40 -87
-80 -192z"/>
</g>
</svg>
