<?xml version="1.0" standalone="no"?>
<!DOCTYPE svg PUBLIC "-//W3C//DTD SVG 20010904//EN"
 "http://www.w3.org/TR/2001/REC-SVG-20010904/DTD/svg10.dtd">
<svg version="1.0" xmlns="http://www.w3.org/2000/svg"
 width="840.000000pt" height="880.000000pt" viewBox="0 0 840.000000 880.000000"
 preserveAspectRatio="xMidYMid meet">

<g transform="translate(0.000000,880.000000) scale(0.100000,-0.100000)"
fill="#f80303" stroke="none">
<path d="M2030 8389 c-617 -54 -1137 -330 -1453 -771 -321 -450 -442 -1078
-341 -1778 135 -936 501 -1615 1356 -2520 96 -102 336 -342 534 -534 511 -497
1006 -995 1170 -1177 346 -385 602 -718 811 -1056 48 -79 90 -143 93 -143 3 0
24 30 45 68 114 194 310 471 511 722 327 409 589 681 1523 1590 706 687 1057
1091 1345 1551 308 492 474 970 552 1594 22 174 25 552 6 705 -39 307 -115
558 -238 785 -282 519 -774 845 -1429 947 -186 29 -543 31 -710 5 -211 -34
-381 -85 -535 -162 -377 -189 -653 -517 -845 -1004 -65 -165 -149 -453 -191
-653 -16 -76 -32 -138 -35 -138 -4 0 -10 21 -14 48 -4 26 -29 136 -56 245
-133 539 -312 909 -565 1176 -192 202 -389 328 -645 412 -257 84 -573 115
-889 88z"/>
</g>
</svg>
