<?xml version="1.0" standalone="no"?>
<!DOCTYPE svg PUBLIC "-//W3C//DTD SVG 20010904//EN"
 "http://www.w3.org/TR/2001/REC-SVG-20010904/DTD/svg10.dtd">
<svg version="1.0" xmlns="http://www.w3.org/2000/svg"
 width="200.000000pt" height="200.000000pt" viewBox="0 0 200.000000 200.000000"
 preserveAspectRatio="xMidYMid meet">

<g transform="translate(0.000000,200.000000) scale(0.100000,-0.100000)"
fill="#000000" stroke="none">
<path d="M494 1158 c-100 -105 -114 -126 -114 -169 0 -34 6 -47 35 -76 31 -31
40 -35 71 -30 33 6 36 4 31 -16 -2 -12 -8 -30 -12 -39 -6 -16 -1 -18 50 -18
62 0 59 -4 39 58 -4 14 2 17 41 17 40 0 51 5 76 33 31 35 38 81 16 118 -22 38
-153 174 -168 174 -8 0 -37 -24 -65 -52z m216 -170 c0 -37 -34 -78 -63 -78
-16 0 -13 5 14 23 27 18 34 30 34 55 0 18 3 32 7 32 5 0 8 -14 8 -32z"/>
<path d="M1090 1120 c0 -73 3 -90 15 -90 9 0 15 9 15 25 0 14 3 25 6 25 3 0
15 -11 26 -25 18 -23 48 -34 48 -17 0 4 -11 21 -24 37 l-24 30 26 28 c25 26
25 27 4 27 -12 0 -27 -9 -34 -20 -20 -31 -28 -24 -28 25 0 33 -4 45 -15 45
-12 0 -15 -17 -15 -90z"/>
<path d="M808 1194 c-5 -4 -8 -43 -8 -86 0 -63 3 -78 15 -78 10 0 15 10 15 30
0 27 3 30 29 30 16 0 37 7 45 16 20 19 21 58 1 74 -17 14 -87 25 -97 14z m70
-51 c3 -19 -1 -23 -22 -23 -21 0 -26 5 -26 26 0 21 4 25 23 22 14 -2 23 -11
25 -25z"/>
<path d="M962 1144 c-45 -31 -19 -114 36 -114 29 0 62 34 62 65 0 29 -32 65
-58 65 -10 0 -28 -7 -40 -16z m53 -49 c0 -33 -28 -47 -39 -19 -10 25 3 56 22
52 11 -2 17 -13 17 -33z"/>
<path d="M1230 1140 c-43 -43 -9 -114 53 -108 38 4 43 22 7 26 -42 6 -47 22
-7 22 34 0 37 2 37 30 0 48 -54 66 -90 30z m60 -20 c0 -5 -9 -10 -20 -10 -11
0 -20 5 -20 10 0 6 9 10 20 10 11 0 20 -4 20 -10z"/>
<path d="M1367 1153 c-26 -7 -21 -116 6 -121 14 -3 17 4 17 47 0 44 3 51 20
51 11 0 20 7 20 15 0 15 -25 18 -63 8z"/>
<path d="M952 899 c2 -64 7 -84 20 -93 23 -14 35 0 20 24 -7 11 -12 49 -12 85
0 52 -3 65 -15 65 -13 0 -15 -14 -13 -81z"/>
<path d="M1160 895 c0 -82 1 -85 25 -91 39 -10 71 3 84 34 17 41 0 81 -39 88
-23 5 -30 12 -30 30 0 17 -6 24 -20 24 -18 0 -20 -7 -20 -85z m75 -30 c0 -20
-6 -31 -17 -33 -15 -3 -18 4 -18 33 0 29 3 36 18 33 11 -2 17 -13 17 -33z"/>
<path d="M820 952 c-13 -10 -23 -33 -27 -59 -5 -35 -2 -45 20 -67 34 -34 107
-34 107 0 0 10 -8 12 -30 8 -39 -8 -60 10 -60 51 0 39 21 59 55 53 29 -6 45
10 24 23 -23 14 -65 10 -89 -9z"/>
<path d="M1020 888 c0 -52 22 -88 55 -88 48 0 55 8 55 72 0 51 -2 59 -17 56
-14 -2 -19 -15 -21 -51 -2 -32 -8 -47 -17 -47 -9 0 -15 15 -17 47 -2 36 -7 49
-20 51 -15 3 -18 -4 -18 -40z"/>
</g>
</svg>
