<?xml version="1.0" standalone="no"?>
<!DOCTYPE svg PUBLIC "-//W3C//DTD SVG 20010904//EN"
 "http://www.w3.org/TR/2001/REC-SVG-20010904/DTD/svg10.dtd">
<svg version="1.0" xmlns="http://www.w3.org/2000/svg"
 width="840.000000pt" height="889.000000pt" viewBox="0 0 840.000000 889.000000"
 preserveAspectRatio="xMidYMid meet">

<g transform="translate(0.000000,889.000000) scale(0.100000,-0.100000)"
fill="#000000" stroke="none">
<path d="M4231 8377 c-67 -113 -86 -143 -148 -228 -18 -24 -43 -59 -55 -78
-13 -19 -51 -64 -84 -100 -34 -36 -63 -72 -65 -79 -8 -26 -461 -492 -478 -492
-6 0 -45 -33 -88 -73 -43 -39 -98 -88 -123 -106 -25 -19 -65 -53 -90 -76 -45
-41 -141 -112 -207 -151 -20 -12 -38 -26 -42 -30 -9 -13 -150 -114 -170 -122
-9 -4 -43 -25 -76 -46 -33 -22 -76 -50 -96 -63 -19 -13 -39 -23 -43 -23 -4 0
-22 -10 -39 -23 -45 -31 -68 -45 -103 -61 -17 -8 -35 -19 -38 -25 -4 -6 -46
-32 -94 -57 -48 -26 -113 -65 -145 -85 -31 -21 -74 -46 -95 -55 -20 -10 -56
-30 -79 -46 -23 -15 -44 -28 -48 -28 -5 0 -94 -56 -189 -119 -41 -27 -54 -35
-105 -66 -19 -11 -48 -31 -65 -45 -17 -14 -38 -29 -48 -35 -45 -28 -158 -107
-163 -115 -3 -5 -29 -25 -58 -44 -29 -19 -72 -55 -97 -78 -25 -24 -61 -53 -80
-65 -53 -34 -350 -347 -350 -370 0 -6 -10 -18 -21 -29 -24 -21 -149 -209 -149
-223 0 -5 -3 -11 -7 -13 -7 -3 -23 -32 -102 -196 -17 -35 -37 -85 -45 -111 -8
-27 -18 -57 -24 -67 -19 -38 -42 -122 -42 -154 0 -18 -6 -53 -14 -79 -32 -103
-38 -157 -43 -399 -6 -248 2 -381 28 -507 6 -27 15 -81 20 -120 19 -148 31
-199 101 -415 78 -244 264 -600 378 -725 15 -16 34 -41 43 -54 27 -41 164
-174 248 -241 44 -36 98 -78 118 -95 20 -16 55 -39 77 -50 21 -11 41 -23 44
-26 3 -4 34 -21 70 -39 36 -18 72 -36 80 -41 8 -5 22 -12 30 -15 8 -3 27 -12
42 -20 14 -8 34 -14 45 -14 10 0 27 -7 37 -15 11 -8 29 -15 40 -15 12 0 29 -7
39 -14 9 -7 28 -11 42 -8 14 2 36 -3 50 -12 16 -10 46 -16 85 -16 39 0 70 -6
85 -16 36 -24 478 -32 521 -9 16 8 47 15 69 15 22 1 51 7 65 15 14 8 42 14 62
15 20 0 40 4 43 10 3 5 18 10 33 10 15 0 36 7 46 15 11 8 32 15 47 15 15 0 31
5 34 10 3 6 17 10 29 10 13 0 29 7 36 15 7 8 19 15 28 15 8 0 23 6 31 13 9 7
45 26 81 42 36 16 74 36 85 45 11 9 52 36 90 59 171 104 368 278 523 464 123
147 153 188 201 276 15 28 49 61 62 61 5 0 17 -12 26 -27 14 -21 18 -46 17
-108 -2 -125 -20 -317 -33 -348 -6 -16 -11 -52 -11 -80 -1 -29 -7 -63 -15 -77
-8 -14 -15 -43 -15 -65 0 -22 -7 -58 -15 -80 -8 -22 -14 -54 -15 -71 0 -18 -7
-45 -15 -60 -8 -16 -15 -43 -15 -60 0 -16 -7 -39 -15 -50 -8 -10 -15 -31 -15
-45 0 -14 -11 -52 -24 -85 -12 -33 -26 -77 -30 -98 -4 -21 -11 -46 -16 -55
-20 -36 -80 -173 -80 -182 0 -5 -11 -27 -25 -49 -14 -22 -25 -43 -25 -48 0 -5
-18 -34 -40 -65 -22 -30 -40 -61 -40 -68 0 -18 -208 -225 -244 -244 -17 -8
-38 -19 -46 -24 -51 -28 -80 -41 -92 -41 -26 0 -93 -40 -105 -64 -11 -20 -10
-27 6 -47 11 -13 36 -32 57 -42 22 -10 52 -25 67 -33 16 -8 41 -14 56 -14 15
0 36 -7 47 -15 10 -8 30 -15 44 -15 14 0 35 -6 46 -14 11 -8 51 -16 89 -19 39
-2 88 -9 110 -15 22 -7 75 -12 118 -12 50 0 86 -5 100 -14 31 -20 770 -27 805
-8 16 9 66 13 160 13 94 0 150 4 180 14 23 8 72 15 107 15 35 0 67 5 70 10 3
6 15 10 26 10 11 0 34 14 51 30 24 25 29 36 23 58 -9 37 -46 74 -119 118 -115
70 -323 317 -418 494 -109 203 -138 260 -138 269 0 6 -11 34 -23 63 -23 51
-31 73 -64 168 -9 25 -22 60 -29 78 -8 18 -14 46 -14 62 0 16 -4 32 -10 35 -5
3 -10 19 -10 34 0 15 -7 36 -15 47 -8 10 -15 37 -15 59 0 22 -7 49 -15 59 -8
11 -15 41 -15 67 0 26 -4 50 -9 53 -9 6 -15 53 -31 221 -4 50 -12 110 -18 135
-12 53 -1 135 21 157 13 14 18 14 44 -2 15 -9 45 -43 66 -76 188 -293 524
-604 802 -744 60 -30 114 -55 120 -55 5 0 21 -9 35 -20 14 -11 32 -20 41 -20
8 0 39 -11 67 -25 29 -14 61 -25 72 -25 12 0 35 -7 51 -16 17 -8 38 -13 47
-11 9 2 33 -4 52 -13 19 -10 58 -18 87 -19 28 -1 67 -8 87 -16 45 -19 408 -22
453 -4 15 7 62 15 103 20 105 11 169 24 182 37 7 7 21 12 32 12 21 0 74 15
121 35 17 7 50 20 75 30 111 44 218 106 400 234 97 68 279 251 369 371 128
171 120 159 235 378 39 75 106 235 106 254 0 11 6 32 13 46 8 15 21 42 30 60
9 19 17 50 17 71 0 20 7 46 15 57 8 10 15 34 15 52 0 18 5 43 12 55 13 23 19
67 43 282 7 72 19 160 25 197 18 104 -1 551 -25 604 -8 17 -14 44 -13 60 1 38
-20 136 -32 148 -6 6 -10 22 -10 36 0 14 -7 35 -15 46 -8 10 -15 27 -15 37 0
9 -4 25 -9 35 -5 9 -28 58 -51 107 -22 50 -45 97 -50 105 -5 8 -23 41 -40 74
-31 58 -97 153 -133 191 -10 11 -34 43 -52 70 -39 57 -310 336 -370 380 -22
16 -63 50 -92 75 -28 25 -71 60 -95 78 -108 83 -227 170 -284 207 -69 45 -146
96 -248 164 -38 25 -79 52 -90 59 -21 13 -109 69 -200 127 -26 17 -95 63 -154
103 -59 40 -145 98 -192 129 -47 31 -138 98 -203 148 -65 49 -134 103 -155
118 -37 28 -106 89 -231 202 -36 34 -95 86 -131 117 -95 82 -418 411 -490 498
-33 41 -74 89 -89 105 -15 17 -45 55 -66 85 -20 30 -50 69 -65 85 -61 67 -190
268 -243 377 -17 38 -36 68 -42 68 -5 0 -34 -42 -64 -93z m127 -5636 c-4 -36
-35 -40 -44 -7 -8 34 12 62 33 44 8 -6 13 -23 11 -37z"/>
</g>
</svg>
